<?xml version="1.0" encoding="utf-8"?>
<!-- Generator: Adobe Illustrator 26.0.0, SVG Export Plug-In . SVG Version: 6.00 Build 0)  -->
<svg version="1.1" id="图层_1" xmlns="http://www.w3.org/2000/svg" xmlns:xlink="http://www.w3.org/1999/xlink" x="0px" y="0px"
	 viewBox="0 0 1600 900" style="enable-background:new 0 0 1600 900;" xml:space="preserve">
<style type="text/css">
	.st0{fill:#00ADEF;}
	.st1{fill:#0069E6;}
	.st2{fill:#23DCE1;}
	.st3{fill:#FFFFFF;}
</style>
<g>
	<g>
		<polygon class="st3" points="465.6,480.24 372.06,480.24 372.06,573.77 		"/>
		<polygon class="st3" points="354.86,590.66 268.95,590.66 311.9,633.61 		"/>
		<polygon class="st3" points="472.59,369.82 355.18,369.82 268.63,369.82 151.22,369.82 151.22,470.35 261.64,470.35 
			261.64,580.45 362.17,580.45 362.17,470.35 472.59,470.35 		"/>
		<polygon class="st3" points="251.75,480.24 158.21,480.24 251.75,573.77 		"/>
		<polygon class="st3" points="472.59,359.93 472.59,266.39 379.05,359.93 		"/>
		<polygon class="st3" points="244.76,359.93 151.22,266.39 151.22,359.93 		"/>
	</g>
	<g>
		<g>
			<path class="st3" d="M732.83,373.96v23.47h-58.66v117.33h-29.33V397.43h-58.66v-23.47H732.83z"/>
			<path class="st3" d="M850.15,444.36h29.33v70.4h-29.33v-23.47h-87.99v23.47h-29.33v-70.4h29.33v23.47h87.99V444.36z
				 M791.49,444.36h-29.33v-46.93h29.33V444.36z M820.82,373.96v23.47h-29.33v-23.47H820.82z M820.82,444.36v-46.93h29.33v46.93
				H820.82z"/>
			<path class="st3" d="M1026.14,373.96v23.47h-58.66v117.33h-29.33V397.43h-58.66v-23.47H1026.14z"/>
			<path class="st3" d="M1172.8,444.36v23.47h-87.99v46.93h-29.33V373.96h117.33v23.47h-87.99v46.93H1172.8z M1172.8,397.43h29.33
				v46.93h-29.33V397.43z M1172.8,514.75v-46.93h29.33v46.93H1172.8z"/>
			<path class="st3" d="M1231.46,373.96h29.33v140.79h-29.33V373.96z"/>
			<path class="st3" d="M1290.12,397.43h29.33v23.47h-29.33V397.43z M1319.45,397.43v-23.47h117.33v23.47H1319.45z M1319.45,444.36
				v-23.46h87.99v23.46H1319.45z M1407.45,491.29v23.47h-87.99v-23.47H1407.45z M1407.45,491.29v-46.93h29.33v46.93H1407.45z"/>
		</g>
	</g>
</g>
</svg>
