<?xml version="1.0" encoding="utf-8"?>
<!-- Generator: Adobe Illustrator 26.0.0, SVG Export Plug-In . SVG Version: 6.00 Build 0)  -->
<svg version="1.1" id="图层_1" xmlns="http://www.w3.org/2000/svg" xmlns:xlink="http://www.w3.org/1999/xlink" x="0px" y="0px"
	 viewBox="0 0 1600 900" style="enable-background:new 0 0 1600 900;" xml:space="preserve">
<style type="text/css">
	.st0{fill:#00ADEF;}
	.st1{fill:#0069E6;}
	.st2{fill:#23DCE1;}
	.st3{fill:#FFFFFF;}
</style>
<g>
	<polygon class="st0" points="278.75,413.57 176.32,413.57 176.32,311.14 	"/>
	<polygon class="st1" points="381.18,618.43 381.18,516 483.6,516 	"/>
	<polygon class="st0" points="381.18,618.43 329.96,669.64 278.75,618.43 	"/>
	<polygon class="st1" points="278.75,618.43 278.75,516 176.32,516 	"/>
	<polygon class="st0" points="381.18,413.57 483.6,413.57 483.6,311.14 	"/>
	<polygon class="st2" points="176.32,413.57 176.32,516 278.75,516 278.75,618.43 381.18,618.43 381.18,516 483.6,516 483.6,413.57 
			"/>
	<g>
		<g>
			<path class="st1" d="M722.87,416.82v23.36h-58.4v116.8h-29.2v-116.8h-58.4v-23.36H722.87z"/>
			<path class="st1" d="M839.67,486.91h29.2v70.08h-29.2v-23.36h-87.6v23.36h-29.2v-70.08h29.2v23.36h87.6V486.91z M781.27,486.91
				h-29.2v-46.72h29.2V486.91z M810.47,416.82v23.36h-29.2v-23.36H810.47z M810.47,486.91v-46.72h29.2v46.72H810.47z"/>
			<path class="st1" d="M1014.88,416.82v23.36h-58.4v116.8h-29.2v-116.8h-58.4v-23.36H1014.88z"/>
			<path class="st1" d="M1160.88,486.91v23.36h-87.6v46.72h-29.2V416.82h116.8v23.36h-87.6v46.72H1160.88z M1160.88,440.19h29.2
				v46.72h-29.2V440.19z M1160.88,556.99v-46.72h29.2v46.72H1160.88z"/>
			<path class="st1" d="M1219.28,416.82h29.2v140.16h-29.2V416.82z"/>
			<path class="st1" d="M1277.68,440.19h29.2v23.36h-29.2V440.19z M1306.88,440.19v-23.36h116.8v23.36H1306.88z M1306.88,486.91
				v-23.36h87.6v23.36H1306.88z M1394.48,533.63v23.36h-87.6v-23.36H1394.48z M1394.48,533.63v-46.72h29.2v46.72H1394.48z"/>
		</g>
	</g>
</g>
</svg>
