<?xml version="1.0" encoding="utf-8"?>
<!-- Generator: Adobe Illustrator 26.0.0, SVG Export Plug-In . SVG Version: 6.00 Build 0)  -->
<svg version="1.1" id="图层_1" xmlns="http://www.w3.org/2000/svg" xmlns:xlink="http://www.w3.org/1999/xlink" x="0px" y="0px"
	 viewBox="0 0 1600 900" style="enable-background:new 0 0 1600 900;" xml:space="preserve">
<style type="text/css">
	.st0{fill:#00ADEF;}
	.st1{fill:#0069E6;}
	.st2{fill:#23DCE1;}
	.st3{fill:#FFFFFF;}
</style>
<g>
	<g>
		<polygon class="st3" points="942.76,379.35 854.89,379.35 854.89,467.23 		"/>
		<polygon class="st3" points="838.73,483.09 758.02,483.09 798.37,523.44 		"/>
		<polygon class="st3" points="949.33,275.62 839.03,275.62 757.72,275.62 647.42,275.62 647.42,370.06 751.15,370.06 751.15,473.5 
			845.6,473.5 845.6,370.06 949.33,370.06 		"/>
		<polygon class="st3" points="741.86,379.35 653.99,379.35 741.86,467.23 		"/>
		<polygon class="st3" points="949.33,266.33 949.33,178.45 861.45,266.33 		"/>
		<polygon class="st3" points="735.29,266.33 647.42,178.45 647.42,266.33 		"/>
	</g>
	<g>
		<g>
			<path class="st3" d="M531.66,585.96v22.6h-56.49v112.99h-28.25V608.56h-56.49v-22.6H531.66z"/>
			<path class="st3" d="M644.64,653.75h28.25v67.79h-28.25v-22.6H559.9v22.6h-28.25v-67.79h28.25v22.6h84.74V653.75z M588.15,653.75
				H559.9v-45.2h28.25V653.75z M616.4,585.96v22.6h-28.25v-22.6H616.4z M616.4,653.75v-45.2h28.25v45.2H616.4z"/>
			<path class="st3" d="M814.13,585.96v22.6h-56.49v112.99h-28.25V608.56h-56.49v-22.6H814.13z"/>
			<path class="st3" d="M955.36,653.75v22.6h-84.74v45.19h-28.25V585.96h112.99v22.6h-84.74v45.2H955.36z M955.36,608.56h28.25v45.2
				h-28.25V608.56z M955.36,721.55v-45.19h28.25v45.19H955.36z"/>
			<path class="st3" d="M1011.85,585.96h28.25v135.59h-28.25V585.96z"/>
			<path class="st3" d="M1068.34,608.56h28.25v22.6h-28.25V608.56z M1096.59,608.56v-22.6h112.99v22.6H1096.59z M1096.59,653.75
				v-22.6h84.74v22.6H1096.59z M1181.33,698.95v22.6h-84.74v-22.6H1181.33z M1181.33,698.95v-45.19h28.25v45.19H1181.33z"/>
		</g>
	</g>
</g>
</svg>
